<?xml version="1.0" encoding="UTF-8"?>
<svg version="1.1" xmlns="http://www.w3.org/2000/svg" width="197" height="187">
<path d="M0 0 C1.1977153 -0.00307663 2.3954306 -0.00615326 3.62944031 -0.00932312 C5.56240715 0.00145515 5.56240715 0.00145515 7.53442383 0.01245117 C8.87152563 0.0136437 10.20862828 0.01409598 11.54573059 0.01383972 C14.34238966 0.01540137 17.13892014 0.02366908 19.93554688 0.03710938 C23.52706176 0.05414818 27.11843611 0.05792215 30.70998669 0.05716419 C33.46797537 0.05743548 36.2259331 0.06290923 38.98391151 0.07016563 C40.95437366 0.07490893 42.92484232 0.07662973 44.89530945 0.07832336 C46.08356827 0.08470322 47.27182709 0.09108307 48.49609375 0.09765625 C50.07350594 0.10337395 50.07350594 0.10337395 51.68278503 0.10920715 C54.05395508 0.24291992 54.05395508 0.24291992 55.05395508 1.24291992 C55.14957118 2.69773487 55.17583859 4.15717478 55.17420959 5.61512756 C55.17627159 7.03076744 55.17627159 7.03076744 55.17837524 8.4750061 C55.17298233 10.04053726 55.17298233 10.04053726 55.16748047 11.63769531 C55.1676265 12.73024124 55.16777252 13.82278717 55.16792297 14.94844055 C55.1672233 18.57917225 55.15942837 22.20985338 55.15161133 25.84057617 C55.14974734 28.35021436 55.14832335 30.8598529 55.14732361 33.36949158 C55.14388856 39.31226585 55.13599781 45.25502376 55.12597412 51.19778961 C55.11371761 58.62493917 55.108333 66.05209097 55.1027832 73.47924805 C55.09204318 86.73381465 55.0751559 99.98836613 55.05395508 113.24291992 C51.04325807 109.86302471 47.13717619 106.45053909 43.43896484 102.72558594 C42.60442276 101.88774063 41.76988068 101.04989532 40.91004944 100.18666077 C40.03070236 99.29901535 39.15135529 98.41136993 38.24536133 97.49682617 C36.83080987 96.0764875 35.41625545 94.65615176 34.00153255 93.23598385 C31.04103389 90.26243534 28.08512191 87.28432766 25.12841797 84.30700684 C22.68815674 81.85008374 20.24686576 79.3942043 17.80296326 76.94090271 C15.97852956 75.10901259 14.15634746 73.27487631 12.33680725 71.43812561 C8.61354511 67.70018179 4.89021729 64.04432565 0.87011719 60.62548828 C-0.40871415 59.50565815 -1.68084278 58.37812591 -2.94604492 57.24291992 C-3.61494751 56.6427858 -4.2838501 56.04265167 -4.97302246 55.42433167 C-8.59032249 51.8122644 -10.3591378 49.18576289 -10.74072266 44.02026367 C-10.73962799 42.07329726 -10.70087547 40.12608298 -10.62963867 38.18041992 C-10.61973404 37.14852539 -10.60982941 36.11663086 -10.59962463 35.0534668 C-10.56067244 31.78179264 -10.47288449 28.51356685 -10.38354492 25.24291992 C-10.34840638 23.01510405 -10.31647185 20.78723519 -10.2878418 18.55932617 C-10.21097477 13.11936244 -10.09408165 7.68138756 -9.94604492 2.24291992 C-6.5504882 0.18933309 -3.9363714 -0.00532204 0 0 Z M-1.94604492 7.24291992 C-6.34881027 20.45121597 -9.08529929 35.15755091 -2.94604492 48.24291992 C3.76462219 58.7988551 13.4813852 67.56341832 22.49145508 76.11791992 C23.09920273 76.69544006 23.70695038 77.27296021 24.33311462 77.86798096 C35.86202231 90.7556257 35.86202231 90.7556257 49.05395508 99.24291992 C49.05395508 68.88291992 49.05395508 38.52291992 49.05395508 7.24291992 C32.22395508 7.24291992 15.39395508 7.24291992 -1.94604492 7.24291992 Z " fill="#F0EDFF" transform="translate(31.946044921875,36.757080078125)"/>
<path d="M0 0 C21.12 0 42.24 0 64 0 C64.309375 7.755 64.61875 15.51 64.9375 23.5 C65.11140259 27.1496582 65.11140259 27.1496582 65.28881836 30.87304688 C65.35036009 32.82152615 65.40921338 34.77009299 65.46484375 36.71875 C65.52224731 37.71422852 65.57965088 38.70970703 65.63879395 39.73535156 C65.74641601 44.6896566 65.53113587 48.05054644 62.2590332 51.90649414 C60.85983115 53.29198469 59.43699494 54.65374742 58 56 C56.587524 57.44387275 55.17537689 58.88807989 53.76837444 60.33728695 C51.00052266 63.1752117 48.19282068 65.97339878 45.390625 68.77734375 C44.17463118 69.99655622 42.95871039 71.21584153 41.74285889 72.43519592 C39.20973289 74.974274 36.67458507 77.5113133 34.13818359 80.04711914 C30.88593286 83.29926755 27.64065794 86.55828434 24.39703751 89.81903744 C21.89549063 92.33167841 19.38943682 94.83978606 16.88207245 97.34662056 C15.68275098 98.5471226 14.48505192 99.74924773 13.28900909 100.95301628 C11.62347276 102.6283159 9.95176189 104.29720165 8.27832031 105.96459961 C7.78581284 106.46272659 7.29330536 106.96085358 6.78587341 107.47407532 C4.51487147 109.72422355 3.08404363 110.97198546 0 112 C0 75.04 0 38.08 0 0 Z M6 6 C6 36.36 6 66.72 6 98 C8.31 96.02 10.62 94.04 13 92 C13.85407944 91.27442902 14.70815887 90.54885803 15.58811951 89.80130005 C22.69628964 83.74323044 29.63282456 77.52066783 36.4375 71.125 C36.97412514 70.62122581 37.51075027 70.11745163 38.06363678 69.59841156 C55.24106533 53.42632469 55.24106533 53.42632469 62.25648499 31.48608398 C62.47129768 22.80985748 60.44330567 14.5970816 59 6 C41.51 6 24.02 6 6 6 Z " fill="#F0EDFF" transform="translate(112,38)"/>
<path d="M0 0 C6.27 0 12.54 0 19 0 C19.31709346 6.68834439 19.58616562 13.37630293 19.81176758 20.06835938 C19.89508329 22.34231203 19.99128181 24.61583194 20.10083008 26.88867188 C20.256473 30.16506298 20.36500189 33.44024078 20.46484375 36.71875 C20.52284653 37.72740112 20.5808493 38.73605225 20.64060974 39.77526855 C20.74629568 44.71456492 20.52051409 48.06306347 17.2590332 51.90649414 C15.85983115 53.29198469 14.43699494 54.65374742 13 56 C11.587524 57.44387275 10.17537689 58.88807989 8.76837444 60.33728695 C6.00052266 63.1752117 3.19282068 65.97339878 0.390625 68.77734375 C-0.82536882 69.99655622 -2.04128961 71.21584153 -3.25714111 72.43519592 C-5.79026711 74.974274 -8.32541493 77.5113133 -10.86181641 80.04711914 C-14.11406714 83.29926755 -17.35934206 86.55828434 -20.60296249 89.81903744 C-23.10450937 92.33167841 -25.61056318 94.83978606 -28.11792755 97.34662056 C-29.31724902 98.5471226 -30.51494808 99.74924773 -31.71099091 100.95301628 C-33.37652724 102.6283159 -35.04823811 104.29720165 -36.72167969 105.96459961 C-37.21418716 106.46272659 -37.70669464 106.96085358 -38.21412659 107.47407532 C-40.48512853 109.72422355 -41.91595637 110.97198546 -45 112 C-45 107.38 -45 102.76 -45 98 C-43.515 97.505 -43.515 97.505 -42 97 C-41.814375 95.0509375 -41.814375 95.0509375 -41.625 93.0625 C-41.4140625 90.84765625 -41.4140625 90.84765625 -41 89 C-40.01 88.505 -40.01 88.505 -39 88 C-38.67 90.97 -38.34 93.94 -38 97 C-29.34421678 89.52155445 -20.87573343 81.8575057 -12.5625 74 C-11.95761623 73.42850094 -11.35273247 72.85700188 -10.72951889 72.26818466 C9.47766588 53.63888898 9.47766588 53.63888898 16.94360352 28.10742188 C16.72192206 20.58724544 15.82880477 13.29592919 14 6 C14.99 5.67 15.98 5.34 17 5 C13.56464151 1.82824575 10.84669909 1.54233495 6.25 1.3125 C4.49429688 1.21388672 4.49429688 1.21388672 2.703125 1.11328125 C1.81109375 1.07589844 0.9190625 1.03851563 0 1 C0 0.67 0 0.34 0 0 Z " fill="#2A2545" transform="translate(157,38)"/>
<path d="M0 0 C1.80141449 0.00022659 1.80141449 0.00022659 3.63922119 0.00045776 C5.57689362 0.01594162 5.57689362 0.01594162 7.55371094 0.03173828 C8.89320667 0.03547044 10.23270514 0.03831646 11.57220459 0.04031372 C15.09036859 0.04793421 18.60836633 0.06756892 22.12646484 0.08972168 C25.71937817 0.11021435 29.31231846 0.11932274 32.90527344 0.12939453 C39.94961211 0.15081644 46.99383814 0.18493314 54.03808594 0.22705078 C55.1346753 3.51681886 54.83761732 4.94008845 54.03808594 8.22705078 C53.37808594 8.22705078 52.71808594 8.22705078 52.03808594 8.22705078 C51.70808594 9.21705078 51.37808594 10.20705078 51.03808594 11.22705078 C50.54308594 9.24705078 50.54308594 9.24705078 50.03808594 7.22705078 C32.87808594 7.22705078 15.71808594 7.22705078 -1.96191406 7.22705078 C-2.12691406 13.82705078 -2.29191406 20.42705078 -2.46191406 27.22705078 C-2.53474609 29.29470703 -2.60757812 31.36236328 -2.68261719 33.49267578 C-3.10087766 42.77497861 -3.10087766 42.77497861 -0.14550781 51.32470703 C1.82107202 53.29128687 3.64205686 54.82779141 6.03808594 56.22705078 C1.81238061 59.04418767 1.81238061 59.04418767 -0.96191406 59.22705078 C-3.06738281 57.64501953 -3.06738281 57.64501953 -5.14941406 55.41455078 C-5.84421875 54.68623047 -6.53902344 53.95791016 -7.25488281 53.20751953 C-9.82991448 50.22001139 -10.08575947 48.54523443 -10.07543945 44.68554688 C-10.07536392 43.7447226 -10.07528839 42.80389832 -10.07521057 41.83456421 C-10.06746864 40.30794662 -10.06746864 40.30794662 -10.05957031 38.75048828 C-10.05815536 37.71010406 -10.05674042 36.66971985 -10.05528259 35.59780884 C-10.04967273 32.26586057 -10.03711854 28.93397883 -10.02441406 25.60205078 C-10.01940033 23.34684342 -10.01483721 21.091635 -10.01074219 18.83642578 C-9.99970009 13.29994464 -9.98295233 7.76350246 -9.96191406 2.22705078 C-6.55952568 0.16600454 -3.9452122 -0.01657652 0 0 Z " fill="#7C6FFF" transform="translate(31.9619140625,36.77294921875)"/>
<path d="M0 0 C0.33 0 0.66 0 1 0 C1.12017287 31.68394427 1.00015842 63.33008994 0 95 C-0.99 95 -1.98 95 -3 95 C-4.62805141 93.37194859 -4.16603495 91.53498396 -4.20532227 89.28540039 C-4.22526245 88.27296768 -4.24520264 87.26053497 -4.26574707 86.21742249 C-4.2824646 85.10539963 -4.29918213 83.99337677 -4.31640625 82.84765625 C-4.33723267 81.6965184 -4.35805908 80.54538055 -4.3795166 79.35935974 C-4.44580289 75.59380907 -4.50446431 71.8281862 -4.5625 68.0625 C-4.60530197 65.49869649 -4.64818941 62.9348944 -4.69116211 60.37109375 C-4.99471248 41.57960343 -5.13359342 22.79351066 -5 4 C-4.01 5.485 -4.01 5.485 -3 7 C-2.67 6.34 -2.34 5.68 -2 5 C-1.34 5 -0.68 5 0 5 C0 3.35 0 1.7 0 0 Z " fill="#463E80" transform="translate(86,40)"/>
<path d="M0 0 C-0.33 2.31 -0.66 4.62 -1 7 C-1.66 7 -2.32 7 -3 7 C-3.33 7.99 -3.66 8.98 -4 10 C-4.495 8.02 -4.495 8.02 -5 6 C-22.16 6 -39.32 6 -57 6 C-57.33 19.2 -57.66 32.4 -58 46 C-58.33 46 -58.66 46 -59 46 C-59.02467609 40.48242521 -59.04284856 34.96488239 -59.05493164 29.44726562 C-59.05996763 27.56933025 -59.06679671 25.6913988 -59.07543945 23.81347656 C-59.08753713 21.11782868 -59.09323557 18.42223253 -59.09765625 15.7265625 C-59.10281754 14.88380768 -59.10797882 14.04105286 -59.11329651 13.17276001 C-59.11387171 7.22774341 -59.11387171 7.22774341 -58 5 C-54.7 5 -51.4 5 -48 5 C-47.67 3.68 -47.34 2.36 -47 1 C-40.62827728 0.6892668 -34.25619547 0.38695592 -27.88378906 0.09057617 C-25.71475107 -0.01131076 -23.54580369 -0.1151457 -21.37695312 -0.22094727 C-18.26453914 -0.37244274 -15.15186951 -0.51699401 -12.0390625 -0.66015625 C-10.57806625 -0.73351952 -10.57806625 -0.73351952 -9.08755493 -0.80836487 C-7.73638077 -0.86854042 -7.73638077 -0.86854042 -6.35791016 -0.92993164 C-5.16544174 -0.98655724 -5.16544174 -0.98655724 -3.94888306 -1.04432678 C-2 -1 -2 -1 0 0 Z " fill="#6B5FE0" transform="translate(87,38)"/>
<path d="M0 0 C3 0 3 0 4.66699219 1.3762207 C6.74732365 5.47096836 6.3876674 9.45376522 6.328125 13.98046875 C6.32625183 14.94906326 6.32437866 15.91765778 6.32244873 16.91560364 C6.31573449 18.95898897 6.30183247 21.00236159 6.28125 23.0456543 C6.25001337 26.18615555 6.24027061 29.32615547 6.234375 32.46679688 C6.22520835 34.450527 6.21483365 36.434252 6.203125 38.41796875 C6.19887512 39.36270554 6.19462524 40.30744232 6.19024658 41.2808075 C6.18063904 42.14873428 6.17103149 43.01666107 6.16113281 43.91088867 C6.15430481 44.67825851 6.14747681 45.44562836 6.14044189 46.23625183 C6 48 6 48 5 49 C4.76807135 50.51469448 4.58784762 52.03754562 4.4375 53.5625 C4.35371094 54.38878906 4.26992187 55.21507812 4.18359375 56.06640625 C4.12300781 56.70449219 4.06242187 57.34257812 4 58 C2.68 58 1.36 58 0 58 C0 38.86 0 19.72 0 0 Z " fill="#3D3570" transform="translate(112,78)"/>
<path d="M0 0 C4.1584335 1.55489894 6.74056411 4.40498258 9.84130859 7.51464844 C10.50248688 8.16725647 11.16366516 8.8198645 11.84487915 9.49224854 C13.23663375 10.87253472 14.62320026 12.25806916 16.00488281 13.6484375 C18.12650016 15.77639095 20.2734064 17.87629122 22.42333984 19.97558594 C23.77261554 21.32031714 25.12032733 22.66661975 26.46630859 24.01464844 C27.43484268 24.95555328 27.43484268 24.95555328 28.42294312 25.91546631 C30.03821133 27.56515758 31.49890716 29.09322794 32.75537109 31.03027344 C32.6484375 33.96875 32.6484375 33.96875 31.75537109 36.03027344 C23.68991863 31.33302075 17.46070384 25.08806888 11.00537109 18.46777344 C9.98134682 17.42865657 8.95661094 16.39024048 7.93115234 15.35253906 C6.04680328 13.44394048 4.16757927 11.53079114 2.29150391 9.61401367 C-0.20537263 7.07026662 -2.7204178 4.5468337 -5.24462891 2.03027344 C-2.24462891 0.03027344 -2.24462891 0.03027344 0 0 Z " fill="#5A4FBF" transform="translate(37.24462890625,93.9697265625)"/>
<path d="M0 0 C7.59 0 15.18 0 23 0 C23 0.33 23 0.66 23 1 C22.01257813 1.04898438 21.02515625 1.09796875 20.0078125 1.1484375 C18.72648437 1.22320312 17.44515625 1.29796875 16.125 1.375 C14.21074219 1.47941406 14.21074219 1.47941406 12.2578125 1.5859375 C8.91938301 1.67241106 8.91938301 1.67241106 7 4 C4.8838349 7.17424766 4.76264869 7.85366636 4.83984375 11.46484375 C4.85152588 12.34237305 4.86320801 13.21990234 4.87524414 14.12402344 C4.89578857 15.0524707 4.91633301 15.98091797 4.9375 16.9375 C5.12238476 32.96084617 5.12238476 32.96084617 4 40 C3.505 40.495 3.505 40.495 3 41 C2.63239269 43.32817964 2.29758419 45.6618385 2 48 C1.67 48 1.34 48 1 48 C0.14518609 42.10799549 -0.1344851 36.41741829 -0.09765625 30.46875 C-0.0962413 29.59222778 -0.09482635 28.71570557 -0.09336853 27.81262207 C-0.08781768 25.04171179 -0.07527461 22.27088543 -0.0625 19.5 C-0.05747864 17.60937618 -0.05291685 15.71875107 -0.04882812 13.828125 C-0.03871972 9.21869247 -0.01913513 4.60943903 0 0 Z " fill="#4A4290" transform="translate(112,38)"/>
<path d="M0 0 C6.27 0 12.54 0 19 0 C19.02310525 4.39256442 19.04297319 8.7849132 19.05493164 13.17749023 C19.05992328 14.66805745 19.06671894 16.15861986 19.07543945 17.64916992 C19.12015168 25.49484991 19.1148321 33.21373172 18 41 C17.34 40.67 16.68 40.34 16 40 C16 42.31 16 44.62 16 47 C15.34 47 14.68 47 14 47 C14 33.47 14 19.94 14 6 C14.99 5.67 15.98 5.34 17 5 C13.56464151 1.82824575 10.84669909 1.54233495 6.25 1.3125 C4.49429688 1.21388672 4.49429688 1.21388672 2.703125 1.11328125 C1.81109375 1.07589844 0.9190625 1.03851563 0 1 C0 0.67 0 0.34 0 0 Z " fill="#1E1B40" transform="translate(157,38)"/>
<path d="M0 0 C0.33 0 0.66 0 1 0 C1.33 2.97 1.66 5.94 2 9 C3.36125 7.5459375 3.36125 7.5459375 4.75 6.0625 C7.06181371 3.59306263 8.64749299 2.57575664 12 2 C12.33 3.32 12.66 4.64 13 6 C12.01 6 11.02 6 10 6 C10.32919434 6.89102417 10.32919434 6.89102417 10.66503906 7.80004883 C11 10 11 10 9.96777344 11.6315918 C9.17161621 12.40756714 9.17161621 12.40756714 8.359375 13.19921875 C7.49505859 14.05290039 7.49505859 14.05290039 6.61328125 14.92382812 C5.99839844 15.50583984 5.38351563 16.08785156 4.75 16.6875 C4.15058594 17.28111328 3.55117187 17.87472656 2.93359375 18.48632812 C-1.55680216 22.85226739 -1.55680216 22.85226739 -5 24 C-5 19.38 -5 14.76 -5 10 C-4.01 9.67 -3.02 9.34 -2 9 C-1.7834375 7.0509375 -1.7834375 7.0509375 -1.5625 5.0625 C-1.125 1.125 -1.125 1.125 0 0 Z " fill="#1E1855" transform="translate(117,126)"/>
<path d="M0 0 C0.33 0 0.66 0 1 0 C1.33 15.84 1.66 31.68 2 48 C2.66 48 3.32 48 4 48 C4 48.66 4 49.32 4 50 C4.66 50 5.32 50 6 50 C6.66 48.68 7.32 47.36 8 46 C10.64 48.64 13.28 51.28 16 54 C11.77429467 56.81713689 11.77429467 56.81713689 9 57 C6.89453125 55.41796875 6.89453125 55.41796875 4.8125 53.1875 C4.11769531 52.45917969 3.42289063 51.73085937 2.70703125 50.98046875 C0.13199958 47.99296061 -0.12384541 46.31818365 -0.11352539 42.45849609 C-0.11344986 41.51767181 -0.11337433 40.57684753 -0.11329651 39.60751343 C-0.10555458 38.08089584 -0.10555458 38.08089584 -0.09765625 36.5234375 C-0.0962413 35.48305328 -0.09482635 34.44266907 -0.09336853 33.37075806 C-0.08775866 30.03880979 -0.07520447 26.70692805 -0.0625 23.375 C-0.05748627 21.11979264 -0.05292314 18.86458422 -0.04882812 16.609375 C-0.03778603 11.07289386 -0.02103827 5.53645168 0 0 Z " fill="#9389FF" transform="translate(22,39)"/>
<path d="M0 0 C-0.33 2.31 -0.66 4.62 -1 7 C-1.66 7 -2.32 7 -3 7 C-3.33 7.99 -3.66 8.98 -4 10 C-4.33 8.68 -4.66 7.36 -5 6 C-8.96 6 -12.92 6 -17 6 C-16.67 4.35 -16.34 2.7 -16 1 C-20.62 1 -25.24 1 -30 1 C-30 0.67 -30 0.34 -30 0 C-26.04924621 -0.16755938 -22.09827679 -0.3281242 -18.14697266 -0.48217773 C-16.14079929 -0.56187238 -14.13484924 -0.64712518 -12.12890625 -0.73242188 C-10.87207031 -0.78076172 -9.61523438 -0.82910156 -8.3203125 -0.87890625 C-6.57645264 -0.94960327 -6.57645264 -0.94960327 -4.79736328 -1.02172852 C-2 -1 -2 -1 0 0 Z " fill="#7063E0" transform="translate(87,38)"/>
<path d="M0 0 C5.28 0 10.56 0 16 0 C15.67 1.32 15.34 2.64 15 4 C11.7 4 8.4 4 5 4 C4.67 7.3 4.34 10.6 4 14 C2.68 14.33 1.36 14.66 0 15 C0 10.05 0 5.1 0 0 Z " fill="#7C6FFF" transform="translate(24,39)"/>
<path d="M0 0 C3.79438418 1.50010537 6.24696475 3.81363461 8.6875 7.0625 C9.5625 9.9375 9.5625 9.9375 9.6875 12.0625 C8.046875 12.87109375 8.046875 12.87109375 5.6875 13.0625 C3.56532068 11.47679339 1.8041444 9.96959742 -0.0625 8.125 C-0.82240234 7.40280273 -0.82240234 7.40280273 -1.59765625 6.66601562 C-2.84662504 5.47596046 -4.0810103 4.27063387 -5.3125 3.0625 C-2.6015625 0.0703125 -2.6015625 0.0703125 0 0 Z " fill="#6058BF" transform="translate(37.3125,93.9375)"/>
<path d="M0 0 C2.35539693 1.97527523 4.68097428 3.98220855 7 6 C7.99 6.845625 8.98 7.69125 10 8.5625 C10.99 9.7690625 10.99 9.7690625 12 11 C11.625 13.65234375 11.625 13.65234375 11 16 C4.91132843 12.30620592 0.38748386 8.6249793 -4 3 C-2 4 0 5 2 6 C1.34 4.02 0.68 2.04 0 0 Z " fill="#4A3FA0" transform="translate(58,114)"/>
<path d="M0 0 C0.33 0 0.66 0 1 0 C1 18.48 1 36.96 1 56 C-6 50 -6 50 -7 48 C-4.69 48.66 -2.38 49.32 0 50 C0 33.5 0 17 0 0 Z " fill="#3A3270" transform="translate(86,94)"/>
<path d="M0 0 C7.59 0 15.18 0 23 0 C23 0.33 23 0.66 23 1 C22.01257813 1.04898438 21.02515625 1.09796875 20.0078125 1.1484375 C18.72648437 1.22320312 17.44515625 1.29796875 16.125 1.375 C14.21074219 1.47941406 14.21074219 1.47941406 12.2578125 1.5859375 C8.91938301 1.67241106 8.91938301 1.67241106 7 4 C6.71125 4.639375 6.4225 5.27875 6.125 5.9375 C5 8 5 8 1 11 C0.67 7.37 0.34 3.74 0 0 Z " fill="#4A4290" transform="translate(112,38)"/>
<path d="M0 0 C2 1 4 2 6 3 C6.66 2.01 7.32 1.02 8 0 C11.53752749 3.29356008 13.84723842 6.69447685 16 11 C15.34 11.66 14.68 12.32 14 13 C8.52964787 9.20962911 4.10037573 5.24972347 0 0 Z " fill="#3D3575" transform="translate(63,126)"/>
<path d="M0 0 C1.17539996 0.92652701 2.34010577 1.86663387 3.5 2.8125 C4.1496875 3.33457031 4.799375 3.85664062 5.46875 4.39453125 C7 6 7 6 7 9 C6.01 9.99 5.02 10.98 4 12 C2.02 9.69 0.04 7.38 -2 5 C-1.34 4.67 -0.68 4.34 0 4 C0 2.68 0 1.36 0 0 Z " fill="#5A50BF" transform="translate(46,102)"/>
<path d="M0 0 C2.91387197 0.2913872 3.82565583 0.79452294 5.75 3.0625 C6.1625 3.701875 6.575 4.34125 7 5 C5.35 5.66 3.7 6.32 2 7 C2.33 7.99 2.66 8.98 3 10 C1.68 9.67 0.36 9.34 -1 9 C-1.09765625 2.84765625 -1.09765625 2.84765625 -1 1 C-0.67 0.67 -0.34 0.34 0 0 Z " fill="#1E1855" transform="translate(113,135)"/>
<path d="M0 0 C0.99 0.33 1.98 0.66 3 1 C4.125 8.75 4.125 8.75 3 11 C2.34 11 1.68 11 1 11 C1 10.34 1 9.68 1 9 C0.34 9 -0.32 9 -1 9 C-1.09765625 2.84765625 -1.09765625 2.84765625 -1 1 C-0.67 0.67 -0.34 0.34 0 0 Z " fill="#7C6FFF" transform="translate(25,78)"/>
<path d="M0 0 C3.3 0 6.6 0 10 0 C10.33 0.99 10.66 1.98 11 3 C8.59454362 4.20272819 7.05003047 4.10071472 4.375 4.0625 C3.14910156 4.04896484 3.14910156 4.04896484 1.8984375 4.03515625 C0.95871094 4.01775391 0.95871094 4.01775391 0 4 C0 2.68 0 1.36 0 0 Z " fill="#5D52D0" transform="translate(71,39)"/>
<path d="M0 0 C0.33 0 0.66 0 1 0 C1 5.28 1 10.56 1 16 C-5.875 10.25 -5.875 10.25 -7 8 C-4.69 8.66 -2.38 9.32 0 10 C0 6.7 0 3.4 0 0 Z " fill="#302860" transform="translate(86,134)"/>
<path d="M0 0 C0.12375 0.804375 0.2475 1.60875 0.375 2.4375 C0.684375 3.7059375 0.684375 3.7059375 1 5 C1.66 5.33 2.32 5.66 3 6 C0.1875 6.25 0.1875 6.25 -3 6 C-4.875 4 -4.875 4 -6 2 C-3 0 -3 0 0 0 Z " fill="#6B60D9" transform="translate(38,94)"/>
<path d="M0 0 C1.65 1.65 3.3 3.3 5 5 C2.69 5.66 0.38 6.32 -2 7 C-2.33 5.68 -2.66 4.36 -3 3 C-2.01 3 -1.02 3 0 3 C0 2.01 0 1.02 0 0 Z " fill="#7C6FFF" transform="translate(33,89)"/>
<path d="M0 0 C0.99 0 1.98 0 3 0 C5.1875 3 5.1875 3 7 6 C6.34 6.66 5.68 7.32 5 8 C2.21611025 6.29374499 1.14615794 5.52373261 0.25 2.3125 C0.1675 1.549375 0.085 0.78625 0 0 Z " fill="#28206A" transform="translate(72,131)"/>
<path d="M0 0 C0.598125 0.20625 1.19625 0.4125 1.8125 0.625 C0.18910195 2.33384005 -1.48069053 3.99946717 -3.1875 5.625 C-3.8475 5.625 -4.5075 5.625 -5.1875 5.625 C-5.1875 4.305 -5.1875 2.985 -5.1875 1.625 C-2.1875 -0.375 -2.1875 -0.375 0 0 Z " fill="#151030" transform="translate(123.1875,138.375)"/>
<path d="M0 0 C1.32 0 2.64 0 4 0 C4 2.64 4 5.28 4 8 C3.566875 7.0409375 3.566875 7.0409375 3.125 6.0625 C2.17176549 3.84793921 2.17176549 3.84793921 0 3 C0 2.01 0 1.02 0 0 Z " fill="#1E1850" transform="translate(172,39)"/>
</svg>
